<svg width="28" height="28" viewBox="0 0 95 110" preserveAspectRatio="xMidYMid meet"
	class="css-g5ufxp" id="afafeggf" fill="currentColor">
	<defs id="SvgjsDefs1518">
	</defs>
	<g id="SvgjsG1519" featurekey="0LeO0L-0" transform="matrix(5.417953025075787,0,0,5.417953025075787,-0.952143333610627,-14.539996166113717)">
		<path d="M0.17578 6.006 l2.7734 0 l0 5.7422 l-0.53711 0 l0 5.9277 l4.1309 0 l0 1.2402 l-0.82031 0 l0 0.2832 l0.82031 0 l0 0.80078 l-2.6758 0 l0 -0.21484 l-3.6719 0 c-0.013018 -0.15625 -0.019531 -0.27344 -0.019531 -0.35156 l0 -3.125 l0.70313 0 l0 -0.41992 l-0.70313 0 l0 -9.8828 z M2.5977 16.9434 l0.16602 0 c0.078125 0.11067 0.1237 0.16602 0.13672 0.16602 c0.05208 -0.11067 0.091143 -0.16602 0.11719 -0.16602 l0.14648 0 c-0.019531 0.05208 -0.081377 0.14648 -0.18555 0.2832 c0.032549 0.065107 0.10091 0.17578 0.20508 0.33203 l-0.16602 0 c-0.078125 -0.071611 -0.11719 -0.13672 -0.11719 -0.19531 c-0.013018 0 -0.068359 0.065107 -0.16602 0.19531 l-0.13672 0 l0 -0.029297 l0.18555 -0.2832 l0 -0.019531 z M6.543 18.916 l1.0156 0 l0 0.2832 l-1.0156 0 l0 -0.2832 z">
		</path>
	</g>
	<g id="SvgjsG1520" featurekey="pulpyG-0" transform="matrix(6.983240372284626,0,0,6.983240372284626,60.81005644260292,-33.40780872809147)">
		<path d="M0.6 8.04 c-0.17334 0 -0.26 0.09334 -0.26 0.28 l0 8.84 c0 0.10666 0.01666 0.18332 0.05 0.22998 s0.11 0.07 0.23 0.07 l1.1 0 c0.12 0 0.19666 -0.02334 0.23 -0.07 s0.05 -0.12332 0.05 -0.22998 l0 -8.84 c0 -0.18666 -0.08666 -0.28 -0.26 -0.28 l-1.14 0 z M4.919999999999998 17.94 c0 0.28 -0.03334 0.54334 -0.1 0.79 s-0.18 0.46332 -0.34 0.64998 s-0.37334 0.33666 -0.64 0.45 s-0.6 0.17 -1 0.17 l-3.36 0 c-0.4 0 -0.73334 -0.05666 -1 -0.17 s-0.48 -0.26334 -0.64 -0.45 s-0.27334 -0.40332 -0.34 -0.64998 s-0.1 -0.51 -0.1 -0.79 l0 -10.56 c0 -0.57334 0.15666 -1.03 0.47 -1.37 s0.81 -0.51 1.49 -0.51 l3.6 0 c0.68 0 1.1767 0.17 1.49 0.51 s0.47 0.79666 0.47 1.37 l0 10.56 z">
		</path>
	</g>
</svg>
